<svg width="200" height="200" viewBox="0 0 200 200" fill="none" xmlns="http://www.w3.org/2000/svg">
<mask id="mask0_514_2662" style="mask-type:luminance" maskUnits="userSpaceOnUse" x="0" y="0" width="200" height="200">
<path d="M0 0H200V200H0V0Z" fill="white"/>
</mask>
<g mask="url(#mask0_514_2662)">
<mask id="mask1_514_2662" style="mask-type:luminance" maskUnits="userSpaceOnUse" x="0" y="0" width="200" height="200">
<path d="M100 0.0727539L200 50.0546V150.018L100 200L0 150.018V50.0546L100 0.0727539Z" fill="white"/>
</mask>
<g mask="url(#mask1_514_2662)">
<path d="M0 200V0H200V200H0Z" fill="#FFAE36"/>
</g>
</g>
<mask id="mask2_514_2662" style="mask-type:luminance" maskUnits="userSpaceOnUse" x="0" y="0" width="200" height="200">
<path d="M0 0.0727539H199.907V200H0V0.0727539Z" fill="white"/>
</mask>
<g mask="url(#mask2_514_2662)">
<mask id="mask3_514_2662" style="mask-type:luminance" maskUnits="userSpaceOnUse" x="0" y="0" width="200" height="200">
<path d="M100 0.0727539L200 50.0546V150.018L100 200L0 150.018V50.0546L100 0.0727539Z" fill="white"/>
</mask>
<g mask="url(#mask3_514_2662)">
<path d="M100 0.0722389L200 50.0541V150.018L100 200L0 150.018V50.0541L100 0.0722389Z" stroke="#FFE1B6" stroke-width="18"/>
</g>
</g>
<mask id="mask4_514_2662" style="mask-type:luminance" maskUnits="userSpaceOnUse" x="19" y="11" width="180" height="178">
<path d="M19 11H198.684V188.998H19V11Z" fill="white"/>
</mask>
<g mask="url(#mask4_514_2662)">
<path d="M19.1431 55.445V144.48L108.909 188.997L198.677 144.48V55.445L108.909 10.9277L19.1431 55.445ZM194.999 57.2754V142.648L108.909 185.37L22.8209 142.648V57.2398L108.909 14.553L194.999 57.2754Z" fill="#FFE1B6"/>
</g>
<mask id="mask5_514_2662" style="mask-type:luminance" maskUnits="userSpaceOnUse" x="47" y="53" width="106" height="95">
<path d="M47.6975 53.3301H152.458V147.174H47.6975V53.3301Z" fill="white"/>
</mask>
<g mask="url(#mask5_514_2662)">
<path d="M149.15 103.427C146.907 98.2356 143.673 93.5128 139.536 89.3877C135.007 84.8784 129.355 81.1834 123.193 78.6959C119.196 77.0865 114.929 75.9266 110.421 75.2353C111.804 70.5199 113.741 65.7881 116.191 61.083C116.79 61.8217 117.64 62.4017 118.684 62.682C121.352 63.4029 124.26 61.9611 125.173 59.4647C126.088 56.9668 124.673 54.3577 122.005 53.6279C119.36 52.907 116.474 54.3295 115.538 56.7977C112.087 62.7948 109.473 68.8467 107.72 74.8793C105.215 74.599 102.635 74.4581 100 74.4581C97.3653 74.4581 94.7839 74.599 92.2802 74.8793C90.5277 68.8467 87.9135 62.7948 84.4619 56.7977C83.526 54.3295 80.6408 52.9159 77.9938 53.6279C75.3261 54.3473 73.8999 56.9579 74.8254 59.4647C75.7405 61.9611 78.6482 63.4029 81.3159 62.682C82.3605 62.4017 83.2101 61.8217 83.8092 61.083C86.2697 65.7881 88.1967 70.5199 89.5797 75.2353C85.0714 75.9266 80.8031 77.0865 76.8076 78.6959C70.6451 81.1834 64.9937 84.8784 60.4647 89.3877C56.3258 93.5128 53.0918 98.2356 50.8488 103.427C48.7596 108.291 47.7028 113.137 47.7132 117.823C47.7253 122.547 48.8235 126.551 50.9576 129.721C53.1367 132.948 56.5227 135.053 60.7582 135.811C64.6346 136.502 68.8804 135.961 72.724 134.286C76.1221 132.807 79.344 130.478 82.1654 127.504C83.0685 130.029 84.9851 133.22 87.6528 136.578C91.4963 141.413 95.8631 145.258 99.3579 146.866L100 147.166L100.643 146.866C104.127 145.267 108.504 141.422 112.348 136.578C115.015 133.22 116.932 130.029 117.835 127.504C120.655 130.478 123.889 132.807 127.276 134.286C130.03 135.483 132.992 136.1 135.877 136.1C137.02 136.1 138.142 136.007 139.242 135.811C143.478 135.053 146.864 132.948 149.041 129.721C151.175 126.551 152.275 122.547 152.285 117.823C152.298 113.137 151.241 108.291 149.15 103.427ZM71.4946 132.199C65.4616 134.828 57.2738 134.426 53.3214 128.552C51.4273 125.736 50.4569 122.126 50.4465 117.823C50.4362 113.417 51.4273 108.843 53.4078 104.242C55.5316 99.311 58.6016 94.8225 62.5332 90.9214C66.8119 86.6658 72.1473 83.1666 77.9731 80.8185C81.7942 79.2759 85.8881 78.1723 90.2117 77.5167C90.5484 78.8457 90.854 80.1733 91.1044 81.5023C92.781 90.2569 92.5306 98.7696 90.3861 106.794C88.5455 113.67 85.4858 119.675 81.3159 124.642C78.441 128.037 75.055 130.648 71.4946 132.199ZM110.094 135.268C106.784 139.439 102.984 142.891 100 144.491C97.0165 142.901 93.2161 139.439 89.9061 135.268C86.672 131.199 84.5275 127.242 84.3203 125.015C88.2951 120.002 91.2235 114.054 93.0313 107.318C95.2639 98.9936 95.5143 90.1827 93.7825 81.1182C93.5321 79.7995 93.2385 78.4808 92.9001 77.1622C95.2087 76.9189 97.5725 76.7973 100 76.7973C102.428 76.7973 104.792 76.9189 107.099 77.1622C106.762 78.4808 106.468 79.7995 106.218 81.1182C104.486 90.1827 104.736 98.9936 106.969 107.318C108.777 114.054 111.705 119.993 115.68 125.015C115.473 127.233 113.328 131.189 110.094 135.268ZM146.679 128.552C144.206 132.218 140.102 133.752 135.889 133.752C133.351 133.752 130.771 133.191 128.506 132.199C124.945 130.648 121.559 128.037 118.695 124.633C114.515 119.665 111.465 113.661 109.625 106.785C107.47 98.7592 107.23 90.248 108.906 81.492C109.157 80.1644 109.462 78.8353 109.799 77.5078C114.123 78.1619 118.217 79.267 122.038 80.8096C127.863 83.1577 133.199 86.6554 137.478 90.9125C141.409 94.8225 144.479 99.3021 146.603 104.231C148.583 108.834 149.587 113.398 149.564 117.814C149.554 122.126 148.583 125.736 146.679 128.552Z" fill="#743A00"/>
</g>
</svg>
