<svg width="17" height="16" viewBox="0 0 17 16" fill="none" xmlns="http://www.w3.org/2000/svg">
<g clip-path="url(#clip0_680_112)">
<path d="M1 0.666672H3.66667L5.45333 9.59334C5.5143 9.90027 5.68127 10.176 5.92503 10.3722C6.16879 10.5684 6.4738 10.6727 6.78667 10.6667H13.2667C13.5795 10.6727 13.8845 10.5684 14.1283 10.3722C14.3721 10.176 14.539 9.90027 14.6 9.59334L15.6667 4.00001H4.33333M7 14C7 14.3682 6.70152 14.6667 6.33333 14.6667C5.96514 14.6667 5.66667 14.3682 5.66667 14C5.66667 13.6318 5.96514 13.3333 6.33333 13.3333C6.70152 13.3333 7 13.6318 7 14ZM14.3333 14C14.3333 14.3682 14.0349 14.6667 13.6667 14.6667C13.2985 14.6667 13 14.3682 13 14C13 13.6318 13.2985 13.3333 13.6667 13.3333C14.0349 13.3333 14.3333 13.6318 14.3333 14Z" stroke="#F5F5F5" stroke-width="1.6" stroke-linecap="round" stroke-linejoin="round"/>
</g>
<defs>
<clipPath id="clip0_680_112">
<rect width="16" height="16" fill="white" transform="translate(0.333496)"/>
</clipPath>
</defs>
</svg>
