<svg width="49" height="47" viewBox="0 0 49 47" fill="none" xmlns="http://www.w3.org/2000/svg">
<path d="M2.9502 2.5H10.9502L16.3102 29.28C16.4931 30.2008 16.994 31.0279 17.7253 31.6166C18.4566 32.2053 19.3716 32.518 20.3102 32.5H39.7502C40.6888 32.518 41.6038 32.2053 42.3351 31.6166C43.0664 31.0279 43.5673 30.2008 43.7502 29.28L46.9502 12.5H12.9502M20.9502 42.5C20.9502 43.6046 20.0548 44.5 18.9502 44.5C17.8456 44.5 16.9502 43.6046 16.9502 42.5C16.9502 41.3954 17.8456 40.5 18.9502 40.5C20.0548 40.5 20.9502 41.3954 20.9502 42.5ZM42.9502 42.5C42.9502 43.6046 42.0548 44.5 40.9502 44.5C39.8456 44.5 38.9502 43.6046 38.9502 42.5C38.9502 41.3954 39.8456 40.5 40.9502 40.5C42.0548 40.5 42.9502 41.3954 42.9502 42.5Z" stroke="#1E1E1E" stroke-width="4" stroke-linecap="round" stroke-linejoin="round"/>
</svg>
